# xmcd CD database file
#
# Track frame offsets:
#	150
#	12802
#	29664
#	44639
#	60019
#	74783
#	85147
#	101910
#	116856
#	132790
#	147421
#	159874
#	177868
#	196410
#	209827
#	225107
#	242877
#	255054
#	269478
#	283473
#	308787
#
# Disc length: 4331 seconds
#
# Revision: 0
# Processed by: cddbd v1.5.2PL0 Copyright (c) Steve Scherf et al.
# Submitted via: CDex 1.51
#
DISCID=3610e915
DTITLE=Varios - O melhor do sertanejo universitario
DYEAR=2009
DGENRE=Country
TTITLE0=Como um anjo - Cesar Menotti e Fabiano
TTITLE1=Bala de prata - Fernando e Sorocaba
TTITLE2=Pode chorar - Jorge e Mateus
TTITLE3=Porque sera - Don e Juan
TTITLE4=So de voce - Joao Neto e Frederico
TTITLE5=Fogo e paixao - Alan e Alex
TTITLE6=Me apaixonei - Eduardo Costa
TTITLE7=Parei - Ronny e Rangel
TTITLE8=Vou doar meu coracao - Joao Bosco e Vinicius
TTITLE9=Caso marcado - Cesar Menotti e Fabiano
TTITLE10=Querendo te amar - Jorge e Mateus
TTITLE11=Vem ficar do meu lado - Fernando e Sorocaba
TTITLE12=Amor de violeiro - Eduardo Costa
TTITLE13=Gandaia - Don e Juan
TTITLE14=Pega fogo cabare - Joao Neto e Frederico
TTITLE15=O mio que ta teno - Alan e Alex
TTITLE16=Bao tamem - Cesar Menotti e Fabiano
TTITLE17=Ah e - Joao Bosco e Vinicius
TTITLE18=Minha pequena - Don e Juan
TTITLE19=Tem nada a ver - Te cuida coracao - Jorge e Mateus
TTITLE20=Na saideira - Eduardo Costa
EXTD=YEAR: 2009
EXTT0=
EXTT1=
EXTT2=
EXTT3=
EXTT4=
EXTT5=
EXTT6=
EXTT7=
EXTT8=
EXTT9=
EXTT10=
EXTT11=
EXTT12=
EXTT13=
EXTT14=
EXTT15=
EXTT16=
EXTT17=
EXTT18=
EXTT19=
EXTT20=
PLAYORDER=
